FFmpeg version SVN-r25716, Copyright (c) 2000-2010 the FFmpeg developers  built on Nov 10 2010 12:23:18 with gcc 4.1.2 20080704 (Red Hat 4.1.2-48)  configuration: --enable-libmp3lame --enable-shared --disable-mmx --arch=x86_64  libavutil     50.33. 0 / 50.33. 0  libavcore      0.12. 1 /  0.12. 1  libavcodec    52.94. 4 / 52.94. 4  libavformat   52.84. 0 / 52.84. 0  libavdevice   52. 2. 2 / 52. 2. 2  libavfilter    1.59. 0 /  1.59. 0  libswscale     0.12. 0 /  0.12. 0Seems stream 0 codec frame rate differs from container frame rate: 1200.00 (1200/1) -> 30.00 (30/1)Input #0, mov,mp4,m4a,3gp,3g2,mj2, from '/RAID10/data/converted_video_files/39305.mov':  Metadata:    major_brand     : qt      minor_version   : 537199360    compatible_brands: qt    Duration: 00:00:16.80, start: 0.000000, bitrate: 5017 kb/s    Stream #0.0(eng): Video: h264, yuv420p, 512x512, 5013 kb/s, 30 fps, 30 tbr, 600 tbn, 1200 tbc[buffer @ 0xeb0be10] w:512 h:512 pixfmt:yuv420pOutput #0, flv, to '/RAID10/data/converted_video_files/39305.flv':  Metadata:    encoder         : Lavf52.84.0    Stream #0.0(eng): Video: flv, yuv420p, 512x512, q=2-31, 600 kb/s, 1k tbn, 24 tbcStream mapping:  Stream #0.0 -> #0.0Press [q] to stop encodingframe=   48 fps=  0 q=14.3 size=     510kB time=2.00 bitrate=2087.1kbits/s dup=0 drop=12    frame=   99 fps= 95 q=11.9 size=     667kB time=4.12 bitrate=1323.7kbits/s dup=0 drop=24    frame=  149 fps= 97 q=8.1 size=     814kB time=6.21 bitrate=1074.2kbits/s dup=0 drop=37    frame=  199 fps= 97 q=10.2 size=     962kB time=8.29 bitrate= 950.5kbits/s dup=0 drop=49    frame=  250 fps= 98 q=12.2 size=    1115kB time=10.42 bitrate= 876.8kbits/s dup=0 drop=62    frame=  298 fps= 98 q=15.4 size=    1282kB time=12.42 bitrate= 845.7kbits/s dup=0 drop=74    frame=  349 fps= 97 q=12.2 size=    1439kB time=14.54 bitrate= 810.9kbits/s dup=0 drop=87    frame=  396 fps= 97 q=11.6 size=    1563kB time=16.50 bitrate= 775.8kbits/s dup=0 drop=99    frame=  404 fps= 97 q=12.3 Lsize=    1587kB time=16.83 bitrate= 772.4kbits/s dup=0 drop=100    video:1581kB audio:0kB global headers:0kB muxing overhead 0.412362%